<?xml version="1.0" encoding="UTF-8" standalone="no" ?>
<!DOCTYPE svg PUBLIC "-//W3C//DTD SVG 1.1//EN" "http://www.w3.org/Graphics/SVG/1.1/DTD/svg11.dtd">
<svg xmlns="http://www.w3.org/2000/svg" xmlns:xlink="http://www.w3.org/1999/xlink" version="1.1" width="512" height="512" viewBox="0 0 512 512" xml:space="preserve">
<desc>Created with Fabric.js 5.2.4</desc>
<defs>
</defs>
<rect x="0" y="0" width="100%" height="100%" fill="transparent"></rect>
<g transform="matrix(1 0 0 1 256 256)" id="eaf99589-3a7e-4eac-84eb-7c6d8e05c8ca"  >
<rect style="stroke: none; stroke-width: 1; stroke-dasharray: none; stroke-linecap: butt; stroke-dashoffset: 0; stroke-linejoin: miter; stroke-miterlimit: 4; fill: rgb(255,255,255); fill-rule: nonzero; opacity: 1; visibility: hidden;" vector-effect="non-scaling-stroke"  x="-256" y="-256" rx="0" ry="0" width="512" height="512" />
</g>
<g transform="matrix(0 0 0 0 0 0)" id="bc24c978-e80a-4383-adba-f7dc499bcbc7"  >
</g>
<g transform="matrix(6.82 0 0 6.82 218.47 225.08)"  >
<path style="stroke: none; stroke-width: 1; stroke-dasharray: none; stroke-linecap: butt; stroke-dashoffset: 0; stroke-linejoin: miter; stroke-miterlimit: 4; fill: rgb(255,51,52); fill-rule: nonzero; opacity: 1;" vector-effect="non-scaling-stroke"  transform=" translate(-34.05, -30.58)" d="M 65.91 25.6 C 65.91 25.6 61.25 17.78 41.839999999999996 20.92 C 25.12 23.63 2.18 31.03 2.18 31.03 L 18.98 40.980000000000004 C 18.98 40.980000000000004 47.519999999999996 21.920000000000005 65.91 25.590000000000003 Z" stroke-linecap="round" />
</g>
<g transform="matrix(6.82 0 0 6.82 294.69 337.05)"  >
<path style="stroke: none; stroke-width: 1; stroke-dasharray: none; stroke-linecap: butt; stroke-dashoffset: 0; stroke-linejoin: miter; stroke-miterlimit: 4; fill: rgb(255,51,52); fill-rule: nonzero; opacity: 1;" vector-effect="non-scaling-stroke"  transform=" translate(-45.27, -47.02)" d="M 72.46 36.84 C 72.46 36.84 76.02 31.950000000000003 73.75999999999999 29.150000000000002 C 71.49999999999999 26.35 62.82999999999999 24.060000000000002 48.89999999999999 28.830000000000002 C 34.74999999999999 33.68 22.909999999999993 43.370000000000005 22.909999999999993 43.370000000000005 L 16.029999999999994 67.96000000000001 C 16.029999999999994 67.96000000000001 34.22 47.72000000000001 50.989999999999995 37.7 C 65.36 29.120000000000005 72.69999999999999 32.010000000000005 72.44999999999999 36.84 Z" stroke-linecap="round" />
</g>
<g transform="matrix(6.82 0 0 6.82 314.61 392.13)"  >
<path style="stroke: none; stroke-width: 1; stroke-dasharray: none; stroke-linecap: butt; stroke-dashoffset: 0; stroke-linejoin: miter; stroke-miterlimit: 4; fill: rgb(255,51,52); fill-rule: nonzero; opacity: 1;" vector-effect="non-scaling-stroke"  transform=" translate(-48.27, -55.15)" d="M 37.6 53.88 L 58.93 67.96000000000001 L 51.84 42.34 C 47.470000000000006 44.580000000000005 40.900000000000006 49.910000000000004 37.6 53.88 Z" stroke-linecap="round" />
</g>
<g transform="matrix(6.82 0 0 6.82 239.8 92.29)"  >
<path style="stroke: none; stroke-width: 1; stroke-dasharray: none; stroke-linecap: butt; stroke-dashoffset: 0; stroke-linejoin: miter; stroke-miterlimit: 4; fill: rgb(255,51,52); fill-rule: nonzero; opacity: 1;" vector-effect="non-scaling-stroke"  transform=" translate(-37.27, -11.05)" d="M 43.67 18.28 L 37.57 2.2200000000000024 L 30.88 19.87 C 34.339999999999996 18.8 39.4 18.35 43.67 18.27 Z" stroke-linecap="round" />
</g>
<g transform="matrix(0 0 0 0 511.36 102.79)"  >
<g style=""   >
</g>
</g>
<g transform="matrix(0 0 0 0 511.36 102.79)"  >
<g style=""   >
</g>
</g>
<g transform="matrix(0 0 0 0 511.36 102.79)"  >
<g style=""   >
</g>
</g>
<g transform="matrix(0 0 0 0 511.36 102.79)"  >
<g style=""   >
</g>
</g>
<g transform="matrix(0 0 0 0 511.36 102.79)"  >
<g style=""   >
</g>
</g>
<g transform="matrix(0 0 0 0 511.36 102.79)"  >
<g style=""   >
</g>
</g>
<g transform="matrix(0 0 0 0 511.36 102.79)"  >
<g style=""   >
</g>
</g>
<g transform="matrix(0 0 0 0 511.36 102.79)"  >
<g style=""   >
</g>
</g>
<g transform="matrix(0 0 0 0 511.36 102.79)"  >
<g style=""   >
</g>
</g>
<g transform="matrix(0 0 0 0 511.36 102.79)"  >
<g style=""   >
</g>
</g>
<g transform="matrix(0 0 0 0 511.36 102.79)"  >
<g style=""   >
</g>
</g>
<g transform="matrix(0 0 0 0 511.36 102.79)"  >
<g style=""   >
</g>
</g>
<g transform="matrix(0 0 0 0 511.36 102.79)"  >
<g style=""   >
</g>
</g>
</svg>